<svg width="259" height="117" viewBox="0 0 259 117" fill="none" xmlns="http://www.w3.org/2000/svg">
<path d="M17.648 35.5294C8.77989 35.5294 1.3236 28.3379 1.3236 19.8227C1.3236 11.3075 8.77989 4.1601 17.648 4.1601C26.472 4.1601 33.9283 11.3075 33.9283 19.8227C33.9283 28.3379 26.472 35.5294 17.648 35.5294ZM17.648 28.6908C22.2365 28.6908 26.1632 24.6318 26.1632 19.8227C26.1632 15.0577 22.2365 10.9987 17.648 10.9987C13.0154 10.9987 9.08873 15.0577 9.08873 19.8227C9.08873 24.6318 13.0154 28.6908 17.648 28.6908ZM51.8334 11.6605C56.7749 11.6605 60.2604 15.3225 60.2604 20.4845V35H53.1129V22.1611C53.1129 19.6462 51.5246 17.8814 49.2304 17.8814C46.9361 17.8814 45.2154 19.6021 45.2154 21.8522V35H37.715V12.1899H45.2154V14.7048C46.6273 12.8517 49.0098 11.6605 51.8334 11.6605ZM65.0388 35V4.1601H72.4951V35H65.0388ZM81.5362 9.41039C79.2861 9.41039 77.5654 7.60146 77.5654 5.43958C77.5654 3.36594 79.2861 1.55702 81.5362 1.55702C83.654 1.55702 85.4188 3.36594 85.4188 5.43958C85.4188 7.60146 83.654 9.41039 81.5362 9.41039ZM77.7419 35V12.1899H85.2423V35H77.7419ZM104.312 11.6605C109.254 11.6605 112.739 15.3225 112.739 20.4845V35H105.592V22.1611C105.592 19.6462 104.003 17.8814 101.709 17.8814C99.4148 17.8814 97.6941 19.6021 97.6941 21.8522V35H90.1937V12.1899H97.6941V14.7048C99.106 12.8517 101.488 11.6605 104.312 11.6605ZM127.886 29.838C129.783 29.838 131.901 29.0438 133.357 27.8084L137.504 31.9998C135.518 34.0735 131.592 35.5294 128.15 35.5294C121.135 35.5294 115.753 30.5439 115.753 23.5288C115.753 16.6019 120.959 11.6605 127.842 11.6605C135.077 11.6605 139.489 16.8225 139.489 25.4701H122.812C123.385 28.0732 125.283 29.838 127.886 29.838ZM127.842 17.352C125.415 17.352 123.606 18.8962 122.9 21.2787H132.342C131.812 18.9403 130.224 17.352 127.842 17.352Z" fill="#488BCE"/>
<path d="M17.648 71.5458C8.77989 71.5458 1.3236 64.3542 1.3236 55.8391C1.3236 47.3239 8.77989 40.1765 17.648 40.1765C22.3689 40.1765 26.6485 42.206 29.6487 45.3826L24.1337 50.2799C22.5895 48.2945 20.207 47.0151 17.648 47.0151C13.0154 47.0151 9.08873 51.0741 9.08873 55.8391C9.08873 60.6482 13.0154 64.7072 17.648 64.7072C20.2511 64.7072 22.5895 63.4277 24.1778 61.4423L29.6487 66.2955C26.6485 69.5163 22.3689 71.5458 17.648 71.5458ZM44.1379 71.5458C37.167 71.5458 31.4314 66.1632 31.4314 59.5893C31.4314 53.0154 37.167 47.6769 44.1379 47.6769C51.1089 47.6769 56.8004 53.0154 56.8004 59.5893C56.8004 66.1632 51.1089 71.5458 44.1379 71.5458ZM44.1379 65.3249C47.2263 65.3249 49.6971 62.7218 49.6971 59.5893C49.6971 56.4567 47.2263 53.8978 44.1379 53.8978C41.0937 53.8978 38.5788 56.4567 38.5788 59.5893C38.5788 62.7218 41.0937 65.3249 44.1379 65.3249ZM88.3545 47.6769C93.1194 47.6769 96.8696 51.3388 96.8696 56.5009V70.9722H89.7222V57.8245C89.7222 55.5302 88.2221 53.8978 86.1044 53.8978C83.8542 53.8978 82.2659 55.442 82.2659 57.5156V70.9722H75.1185V57.8245C75.1185 55.5302 73.6184 53.8978 71.5006 53.8978C69.2505 53.8978 67.7063 55.442 67.7063 57.5156V70.9722H60.2059V48.2063H67.7063V51.0741C68.8093 49.0005 71.0153 47.6769 73.7508 47.6769C76.8392 47.6769 79.5305 49.2211 81.0306 51.7359C82.2218 49.2652 84.9131 47.6769 88.3545 47.6769ZM129.458 47.6769C134.223 47.6769 137.974 51.3388 137.974 56.5009V70.9722H130.826V57.8245C130.826 55.5302 129.326 53.8978 127.208 53.8978C124.958 53.8978 123.37 55.442 123.37 57.5156V70.9722H116.222V57.8245C116.222 55.5302 114.722 53.8978 112.605 53.8978C110.355 53.8978 108.81 55.442 108.81 57.5156V70.9722H101.31V48.2063H108.81V51.0741C109.913 49.0005 112.119 47.6769 114.855 47.6769C117.943 47.6769 120.634 49.2211 122.135 51.7359C123.326 49.2652 126.017 47.6769 129.458 47.6769ZM153.091 65.8543C154.988 65.8543 157.106 65.0602 158.562 63.8248L162.709 68.0162C160.724 70.0898 156.797 71.5458 153.356 71.5458C146.341 71.5458 140.958 66.5602 140.958 59.5452C140.958 52.6183 146.164 47.6769 153.047 47.6769C160.283 47.6769 164.695 52.8389 164.695 61.4864H148.017C148.591 64.0895 150.488 65.8543 153.091 65.8543ZM153.047 53.3683C150.62 53.3683 148.811 54.9125 148.105 57.295H157.547C157.018 54.9567 155.429 53.3683 153.047 53.3683ZM175.421 52.3536C176.921 49.4858 179.613 47.6769 182.877 47.6769V53.8978C178.245 53.8978 175.421 56.545 175.421 60.7364V71.0164H167.921V48.2063H175.421V52.3536ZM196.919 71.5458C190.08 71.5458 184.3 66.0749 184.3 59.5893C184.3 53.1036 190.124 47.6769 197.007 47.6769C200.889 47.6769 204.022 49.2652 206.228 51.7359L201.287 55.8391C200.272 54.7361 198.551 53.8978 196.963 53.8978C194.007 53.8978 191.492 56.5009 191.492 59.5452C191.492 62.6777 194.007 65.3249 197.007 65.3249C198.595 65.3249 200.36 64.4866 201.419 63.2954L206.36 67.3544C204.11 69.9134 200.934 71.5458 196.919 71.5458ZM220.047 65.8543C221.944 65.8543 224.061 65.0602 225.517 63.8248L229.665 68.0162C227.679 70.0898 223.753 71.5458 220.311 71.5458C213.296 71.5458 207.914 66.5602 207.914 59.5452C207.914 52.6183 213.12 47.6769 220.002 47.6769C227.238 47.6769 231.65 52.8389 231.65 61.4864H214.973C215.546 64.0895 217.443 65.8543 220.047 65.8543ZM220.002 53.3683C217.576 53.3683 215.767 54.9125 215.061 57.295H224.503C223.973 54.9567 222.385 53.3683 220.002 53.3683Z" fill="#FF4E4E"/>
<path d="M26.8691 83.4725H10.5447V88.1933H25.4131V94.9437H10.5447V100.282H26.8691V107.033H3.00016V76.7221H26.8691V83.4725ZM45.8445 83.6931C50.7859 83.6931 54.2714 87.3551 54.2714 92.5171V107.033H47.124V94.1937C47.124 91.6788 45.5357 89.914 43.2414 89.914C40.9472 89.914 39.2265 91.6347 39.2265 93.8848V107.033H31.7261V84.2225H39.2265V86.7374C40.6383 84.8843 43.0208 83.6931 45.8445 83.6931ZM71.4937 100.591L72.9938 105.4C71.6261 106.68 69.376 107.562 67.4347 107.562C63.1551 107.562 60.1549 104.518 60.1549 100.238V90.1787H57.1547V84.2225H60.1549V77.9575H67.3023V84.2225H72.0232V90.1787H67.3023V98.8704C67.3023 100.326 68.1847 101.341 69.376 101.341C70.2143 101.341 71.0525 101.032 71.4937 100.591ZM86.9971 101.871C88.8943 101.871 91.012 101.076 92.468 99.841L96.6153 104.032C94.6299 106.106 90.7032 107.562 87.2618 107.562C80.2467 107.562 74.8641 102.576 74.8641 95.5614C74.8641 88.6345 80.0703 83.6931 86.953 83.6931C94.1887 83.6931 98.6007 88.8551 98.6007 97.5027H81.9233C82.4969 100.106 84.394 101.871 86.9971 101.871ZM86.953 89.3846C84.5264 89.3846 82.7175 90.9288 82.0115 93.3113H91.4532C90.9238 90.9729 89.3355 89.3846 86.953 89.3846ZM109.327 88.3698C110.827 85.502 113.519 83.6931 116.784 83.6931V89.914C112.151 89.914 109.327 92.5612 109.327 96.7526V107.033H101.827V84.2225H109.327V88.3698ZM135.361 83.6931C141.449 83.6931 145.817 88.6345 145.817 95.6055C145.817 102.621 141.449 107.562 135.361 107.562C132.273 107.562 129.669 106.283 127.861 104.077V114.621H120.404V84.2225H127.861V87.1786C129.669 84.9726 132.273 83.6931 135.361 83.6931ZM133.067 101.341C136.332 101.341 138.626 98.9586 138.626 95.6055C138.626 92.2965 136.332 89.914 133.067 89.914C130.022 89.914 127.861 92.2965 127.861 95.6055C127.861 98.9586 130.022 101.341 133.067 101.341ZM156.937 88.3698C158.437 85.502 161.129 83.6931 164.394 83.6931V89.914C159.761 89.914 156.937 92.5612 156.937 96.7526V107.033H149.437V84.2225H156.937V88.3698ZM171.5 81.443C169.25 81.443 167.529 79.6341 167.529 77.4722C167.529 75.3985 169.25 73.5896 171.5 73.5896C173.617 73.5896 175.382 75.3985 175.382 77.4722C175.382 79.6341 173.617 81.443 171.5 81.443ZM167.705 107.033V84.2225H175.206V107.033H167.705ZM188.983 107.562C185.189 107.562 181.174 106.283 178.439 104.121L181.306 99.5322C183.601 101.121 186.733 102.224 189.16 102.224C191.057 102.224 191.895 101.65 191.895 100.591C191.895 99.4881 190.307 98.9586 188.013 98.4292C183.601 97.4144 179.453 96.2673 179.453 91.3259C179.453 86.958 182.983 83.6931 188.674 83.6931C192.072 83.6931 195.381 84.9285 197.94 86.605L195.337 91.2817C193.351 90.0023 190.792 88.8993 188.674 88.8993C187.218 88.8993 186.16 89.6493 186.16 90.6199C186.16 91.5906 187.307 91.8112 189.998 92.5171C194.013 93.4877 198.601 94.8555 198.601 100.018C198.601 104.606 194.895 107.562 188.983 107.562ZM212.291 101.871C214.188 101.871 216.306 101.076 217.762 99.841L221.909 104.032C219.924 106.106 215.997 107.562 212.556 107.562C205.541 107.562 200.158 102.576 200.158 95.5614C200.158 88.6345 205.364 83.6931 212.247 83.6931C219.483 83.6931 223.895 88.8551 223.895 97.5027H207.217C207.791 100.106 209.688 101.871 212.291 101.871ZM212.247 89.3846C209.82 89.3846 208.011 90.9288 207.305 93.3113H216.747C216.218 90.9729 214.629 89.3846 212.247 89.3846ZM234.654 107.562C230.86 107.562 226.845 106.283 224.11 104.121L226.978 99.5322C229.272 101.121 232.404 102.224 234.831 102.224C236.728 102.224 237.566 101.65 237.566 100.591C237.566 99.4881 235.978 98.9586 233.684 98.4292C229.272 97.4144 225.124 96.2673 225.124 91.3259C225.124 86.958 228.654 83.6931 234.346 83.6931C237.743 83.6931 241.052 84.9285 243.611 86.605L241.008 91.2817C239.022 90.0023 236.463 88.8993 234.346 88.8993C232.89 88.8993 231.831 89.6493 231.831 90.6199C231.831 91.5906 232.978 91.8112 235.669 92.5171C239.684 93.4877 244.273 94.8555 244.273 100.018C244.273 104.606 240.566 107.562 234.654 107.562ZM251.995 107.562C249.347 107.562 247.362 105.488 247.362 102.929C247.362 100.547 249.347 98.4733 251.995 98.4733C254.465 98.4733 256.451 100.547 256.451 102.929C256.451 105.488 254.465 107.562 251.995 107.562Z" fill="#39CBBA"/>
</svg>
